<mxfile host="app.diagrams.net" modified="2023-04-18T09:57:16.845Z" agent="Mozilla/5.0 (X11; Linux x86_64) AppleWebKit/537.36 (KHTML, like Gecko) Chrome/112.0.0.0 Safari/537.36" etag="vDFhOx3sA5q5_ORWbxnm" version="21.1.8" type="device">
  <diagram id="cstUYs0_MrwpeLKSXvVJ" name="Page-1">
    <mxGraphModel dx="973" dy="745" grid="1" gridSize="10" guides="1" tooltips="1" connect="1" arrows="1" fold="1" page="1" pageScale="1" pageWidth="850" pageHeight="1100" math="0" shadow="0">
      <root>
        <mxCell id="0" />
        <mxCell id="1" parent="0" />
        <mxCell id="PixU_zPo2oAfD264CS3G-1" value="" style="rounded=0;whiteSpace=wrap;html=1;fontColor=#717171;labelBackgroundColor=#717171;fillColor=#E6E6E6;strokeColor=none;" vertex="1" parent="1">
          <mxGeometry x="190" y="160" width="530" height="260" as="geometry" />
        </mxCell>
        <mxCell id="4L4TsIcvxuaD26HZeU3--1" value="&lt;div&gt;ssl-&lt;/div&gt;&lt;div&gt;certificates&lt;/div&gt;" style="sketch=0;points=[[0,0,0],[0.25,0,0],[0.5,0,0],[0.75,0,0],[1,0,0],[1,0.25,0],[1,0.5,0],[1,0.75,0],[1,1,0],[0.75,1,0],[0.5,1,0],[0.25,1,0],[0,1,0],[0,0.75,0],[0,0.5,0],[0,0.25,0]];rounded=1;absoluteArcSize=1;arcSize=2;html=1;strokeColor=#330000;gradientColor=none;shadow=0;dashed=0;fontSize=12;fontColor=#000000;align=center;verticalAlign=top;spacing=10;spacingTop=-4;fillColor=#FFFFFF;strokeWidth=1;" parent="1" vertex="1">
          <mxGeometry x="220" y="187.5" width="100" height="55" as="geometry" />
        </mxCell>
        <mxCell id="BPpdw_s69a40fWfZZwsO-12" value="&lt;div&gt;backend-services&lt;/div&gt;&lt;div&gt;&lt;br&gt;&lt;/div&gt;&lt;div&gt;(normal usage)&lt;br&gt;&lt;/div&gt;" style="sketch=0;points=[[0,0,0],[0.25,0,0],[0.5,0,0],[0.75,0,0],[1,0,0],[1,0.25,0],[1,0.5,0],[1,0.75,0],[1,1,0],[0.75,1,0],[0.5,1,0],[0.25,1,0],[0,1,0],[0,0.75,0],[0,0.5,0],[0,0.25,0]];rounded=1;absoluteArcSize=1;arcSize=2;html=1;strokeColor=#330000;gradientColor=none;shadow=0;dashed=0;fontSize=12;fontColor=#000000;align=center;verticalAlign=top;spacing=10;spacingTop=-4;fillColor=#FFFFFF;strokeWidth=1;" parent="1" vertex="1">
          <mxGeometry x="472" y="322" width="130" height="60" as="geometry" />
        </mxCell>
        <mxCell id="BPpdw_s69a40fWfZZwsO-19" value="&lt;div&gt;health-&lt;/div&gt;&lt;div&gt;checks&lt;/div&gt;" style="sketch=0;points=[[0,0,0],[0.25,0,0],[0.5,0,0],[0.75,0,0],[1,0,0],[1,0.25,0],[1,0.5,0],[1,0.75,0],[1,1,0],[0.75,1,0],[0.5,1,0],[0.25,1,0],[0,1,0],[0,0.75,0],[0,0.5,0],[0,0.25,0]];rounded=1;absoluteArcSize=1;arcSize=2;html=1;strokeColor=#330000;gradientColor=none;shadow=0;dashed=0;fontSize=12;fontColor=#000000;align=center;verticalAlign=top;spacing=10;spacingTop=-4;fillColor=#FFFFFF;strokeWidth=1;" parent="1" vertex="1">
          <mxGeometry x="610" y="330.5" width="90" height="43" as="geometry" />
        </mxCell>
        <mxCell id="BPpdw_s69a40fWfZZwsO-28" value="" style="endArrow=none;html=1;rounded=0;entryX=0;entryY=0.5;entryDx=0;entryDy=0;entryPerimeter=0;exitX=0.985;exitY=0.5;exitDx=0;exitDy=0;exitPerimeter=0;" parent="1" source="BPpdw_s69a40fWfZZwsO-12" target="BPpdw_s69a40fWfZZwsO-19" edge="1">
          <mxGeometry width="50" height="50" relative="1" as="geometry">
            <mxPoint x="435" y="507" as="sourcePoint" />
            <mxPoint x="485" y="457" as="targetPoint" />
          </mxGeometry>
        </mxCell>
        <mxCell id="BPpdw_s69a40fWfZZwsO-32" value="&lt;div&gt;target-https-proxies&lt;/div&gt;&lt;div&gt;&lt;br&gt;&lt;/div&gt;&lt;div&gt;global external&lt;/div&gt;&lt;div&gt;HTTPS load balancer&lt;br&gt;&lt;/div&gt;" style="sketch=0;points=[[0,0,0],[0.25,0,0],[0.5,0,0],[0.75,0,0],[1,0,0],[1,0.25,0],[1,0.5,0],[1,0.75,0],[1,1,0],[0.75,1,0],[0.5,1,0],[0.25,1,0],[0,1,0],[0,0.75,0],[0,0.5,0],[0,0.25,0]];rounded=1;absoluteArcSize=1;arcSize=2;html=1;strokeColor=#330000;gradientColor=none;shadow=0;dashed=0;fontSize=12;fontColor=#000000;align=center;verticalAlign=top;spacing=10;spacingTop=-4;fillColor=#FFFFFF;strokeWidth=1;" parent="1" vertex="1">
          <mxGeometry x="346" y="175" width="170" height="80" as="geometry" />
        </mxCell>
        <mxCell id="BPpdw_s69a40fWfZZwsO-35" value="" style="endArrow=none;html=1;rounded=0;entryX=0;entryY=0.5;entryDx=0;entryDy=0;entryPerimeter=0;" parent="1" source="4L4TsIcvxuaD26HZeU3--1" target="BPpdw_s69a40fWfZZwsO-32" edge="1">
          <mxGeometry width="50" height="50" relative="1" as="geometry">
            <mxPoint x="208" y="547" as="sourcePoint" />
            <mxPoint x="258" y="497" as="targetPoint" />
          </mxGeometry>
        </mxCell>
        <mxCell id="X4NesGkVoh1Z93VtBxHY-2" value="&lt;div&gt;backend-services&lt;/div&gt;&lt;div&gt;&lt;br&gt;&lt;/div&gt;&lt;div&gt;(for maintenance)&lt;br&gt;&lt;/div&gt;" style="sketch=0;points=[[0,0,0],[0.25,0,0],[0.5,0,0],[0.75,0,0],[1,0,0],[1,0.25,0],[1,0.5,0],[1,0.75,0],[1,1,0],[0.75,1,0],[0.5,1,0],[0.25,1,0],[0,1,0],[0,0.75,0],[0,0.5,0],[0,0.25,0]];rounded=1;absoluteArcSize=1;arcSize=2;html=1;strokeColor=#330000;gradientColor=none;shadow=0;dashed=0;fontSize=12;fontColor=#000000;align=center;verticalAlign=top;spacing=10;spacingTop=-4;fillColor=#FFFFFF;strokeWidth=1;" parent="1" vertex="1">
          <mxGeometry x="252" y="322" width="130" height="60" as="geometry" />
        </mxCell>
        <mxCell id="X4NesGkVoh1Z93VtBxHY-24" value="&lt;div style=&quot;font-size: 15px;&quot;&gt;&lt;font style=&quot;font-size: 15px;&quot;&gt;&lt;span style=&quot;font-size: 15px;&quot;&gt;swap&lt;br style=&quot;font-size: 15px;&quot;&gt;&lt;/span&gt;&lt;/font&gt;&lt;/div&gt;&lt;div style=&quot;font-size: 15px;&quot;&gt;&lt;font style=&quot;font-size: 15px;&quot;&gt;&lt;span style=&quot;font-size: 15px;&quot;&gt;url-map&lt;/span&gt;&lt;/font&gt;&lt;br style=&quot;font-size: 15px;&quot;&gt;&lt;/div&gt;" style="text;html=1;resizable=0;autosize=1;align=center;verticalAlign=middle;points=[];fillColor=none;strokeColor=none;rounded=0;fontStyle=3;fontColor=#FF0000;fontSize=15;" parent="1" vertex="1">
          <mxGeometry x="385" y="292.5" width="80" height="50" as="geometry" />
        </mxCell>
        <mxCell id="X4NesGkVoh1Z93VtBxHY-29" value="" style="endArrow=diamond;dashed=1;html=1;dashPattern=1 3;strokeWidth=2;rounded=0;fontSize=11;fontColor=#FF0000;endFill=0;exitX=0;exitY=0.5;exitDx=0;exitDy=0;exitPerimeter=0;entryX=0.555;entryY=0.988;entryDx=0;entryDy=0;entryPerimeter=0;" parent="1" source="LVqlX_i8fJR3tGQq3VMP-5" target="BPpdw_s69a40fWfZZwsO-32" edge="1">
          <mxGeometry width="50" height="50" relative="1" as="geometry">
            <mxPoint x="470" y="350" as="sourcePoint" />
            <mxPoint x="440" y="260" as="targetPoint" />
            <Array as="points">
              <mxPoint x="440" y="300" />
            </Array>
          </mxGeometry>
        </mxCell>
        <mxCell id="LVqlX_i8fJR3tGQq3VMP-2" value="url-maps" style="sketch=0;points=[[0,0,0],[0.25,0,0],[0.5,0,0],[0.75,0,0],[1,0,0],[1,0.25,0],[1,0.5,0],[1,0.75,0],[1,1,0],[0.75,1,0],[0.5,1,0],[0.25,1,0],[0,1,0],[0,0.75,0],[0,0.5,0],[0,0.25,0]];rounded=1;absoluteArcSize=1;arcSize=2;html=1;strokeColor=#330000;gradientColor=none;shadow=0;dashed=0;fontSize=12;fontColor=#000000;align=center;verticalAlign=top;spacing=10;spacingTop=-4;fillColor=#FFFFFF;strokeWidth=1;" parent="1" vertex="1">
          <mxGeometry x="252" y="286" width="130" height="28" as="geometry" />
        </mxCell>
        <mxCell id="LVqlX_i8fJR3tGQq3VMP-4" value="" style="endArrow=none;html=1;rounded=0;entryX=0.5;entryY=1;entryDx=0;entryDy=0;entryPerimeter=0;exitX=0.5;exitY=0;exitDx=0;exitDy=0;exitPerimeter=0;" parent="1" source="X4NesGkVoh1Z93VtBxHY-2" target="LVqlX_i8fJR3tGQq3VMP-2" edge="1">
          <mxGeometry width="50" height="50" relative="1" as="geometry">
            <mxPoint x="400" y="450" as="sourcePoint" />
            <mxPoint x="450" y="400" as="targetPoint" />
          </mxGeometry>
        </mxCell>
        <mxCell id="LVqlX_i8fJR3tGQq3VMP-5" value="url-maps" style="sketch=0;points=[[0,0,0],[0.25,0,0],[0.5,0,0],[0.75,0,0],[1,0,0],[1,0.25,0],[1,0.5,0],[1,0.75,0],[1,1,0],[0.75,1,0],[0.5,1,0],[0.25,1,0],[0,1,0],[0,0.75,0],[0,0.5,0],[0,0.25,0]];rounded=1;absoluteArcSize=1;arcSize=2;html=1;strokeColor=#330000;gradientColor=none;shadow=0;dashed=0;fontSize=12;fontColor=#000000;align=center;verticalAlign=top;spacing=10;spacingTop=-4;fillColor=#FFFFFF;strokeWidth=1;" parent="1" vertex="1">
          <mxGeometry x="472" y="286" width="130" height="28" as="geometry" />
        </mxCell>
        <mxCell id="LVqlX_i8fJR3tGQq3VMP-6" value="" style="endArrow=none;html=1;rounded=0;entryX=0.5;entryY=1;entryDx=0;entryDy=0;entryPerimeter=0;exitX=0.5;exitY=0;exitDx=0;exitDy=0;exitPerimeter=0;" parent="1" target="LVqlX_i8fJR3tGQq3VMP-5" edge="1">
          <mxGeometry width="50" height="50" relative="1" as="geometry">
            <mxPoint x="537" y="322" as="sourcePoint" />
            <mxPoint x="670" y="400" as="targetPoint" />
          </mxGeometry>
        </mxCell>
        <mxCell id="LVqlX_i8fJR3tGQq3VMP-7" value="" style="endArrow=diamond;dashed=1;html=1;dashPattern=1 3;strokeWidth=2;rounded=0;fontSize=11;fontColor=#FF0000;endFill=0;exitX=1;exitY=0.5;exitDx=0;exitDy=0;exitPerimeter=0;entryX=0.555;entryY=0.988;entryDx=0;entryDy=0;entryPerimeter=0;" parent="1" source="LVqlX_i8fJR3tGQq3VMP-2" edge="1">
          <mxGeometry width="50" height="50" relative="1" as="geometry">
            <mxPoint x="448" y="300.96" as="sourcePoint" />
            <mxPoint x="416.35" y="254.99999999999997" as="targetPoint" />
            <Array as="points">
              <mxPoint x="416" y="300.96" />
            </Array>
          </mxGeometry>
        </mxCell>
      </root>
    </mxGraphModel>
  </diagram>
</mxfile>
